<svg xmlns="http://www.w3.org/2000/svg" xmlns:xlink="http://www.w3.org/1999/xlink" height="200" width="400"><polygon points="0,200 0,100 1,101 2,100 3,101 4,102 5,101 6,102 7,101 8,102 9,101 10,100 11,99 12,98 13,97 14,96 15,95 16,94 17,93 18,94 19,95 20,96 21,95 22,94 23,95 24,96 25,95 26,96 27,97 28,98 29,99 30,98 31,97 32,96 33,95 34,96 35,95 36,94 37,93 38,92 39,93 40,94 41,93 42,94 43,95 44,94 45,93 46,94 47,93 48,94 49,95 50,94 51,95 52,96 53,95 54,94 55,95 56,96 57,97 58,98 59,99 60,98 61,99 62,98 63,97 64,98 65,97 66,98 67,99 68,100 69,101 70,102 71,103 72,102 73,103 74,104 75,103 76,102 77,103 78,104 79,103 80,104 81,105 82,106 83,105 84,104 85,105 86,106 87,107 88,108 89,109 90,108 91,107 92,108 93,109 94,108 95,107 96,106 97,107 98,106 99,107 100,108 101,107 102,106 103,105 104,106 105,107 106,108 107,107 108,108 109,109 110,108 111,107 112,108 113,107 114,106 115,105 116,106 117,105 118,106 119,105 120,104 121,105 122,106 123,105 124,106 125,107 126,106 127,105 128,106 129,105 130,104 131,105 132,106 133,107 134,106 135,105 136,106 137,105 138,106 139,105 140,106 141,107 142,106 143,107 144,108 145,109 146,108 147,107 148,106 149,107 150,106 151,105 152,106 153,107 154,106 155,105 156,104 157,105 158,106 159,107 160,108 161,107 162,108 163,109 164,110 165,109 166,108 167,109 168,110 169,109 170,110 171,109 172,108 173,107 174,108 175,109 176,108 177,109 178,108 179,109 180,110 181,111 182,110 183,111 184,110 185,109 186,110 187,111 188,110 189,109 190,108 191,107 192,106 193,107 194,106 195,105 196,104 197,103 198,102 199,101 200,100 201,101 202,100 203,101 204,102 205,101 206,102 207,101 208,102 209,103 210,102 211,103 212,104 213,103 214,104 215,103 216,102 217,101 218,102 219,103 220,104 221,103 222,104 223,105 224,104 225,105 226,106 227,107 228,108 229,107 230,108 231,109 232,108 233,109 234,108 235,107 236,106 237,107 238,108 239,107 240,106 241,107 242,106 243,105 244,106 245,105 246,106 247,105 248,106 249,105 250,106 251,105 252,106 253,107 254,106 255,105 256,104 257,105 258,106 259,105 260,104 261,103 262,102 263,103 264,104 265,105 266,106 267,107 268,106 269,107 270,106 271,107 272,108 273,109 274,110 275,111 276,112 277,113 278,112 279,113 280,114 281,115 282,116 283,117 284,116 285,117 286,118 287,117 288,118 289,117 290,116 291,117 292,118 293,117 294,118 295,117 296,116 297,115 298,116 299,115 300,114 301,113 302,112 303,113 304,114 305,115 306,114 307,113 308,114 309,115 310,116 311,117 312,118 313,117 314,116 315,117 316,118 317,117 318,118 319,117 320,116 321,115 322,114 323,113 324,112 325,113 326,112 327,111 328,112 329,111 330,110 331,109 332,108 333,107 334,108 335,109 336,110 337,109 338,110 339,109 340,108 341,107 342,108 343,109 344,108 345,107 346,106 347,107 348,106 349,105 350,106 351,105 352,106 353,107 354,108 355,107 356,106 357,105 358,104 359,105 360,106 361,105 362,104 363,105 364,104 365,103 366,102 367,101 368,102 369,103 370,102 371,101 372,102 373,103 374,102 375,101 376,100 377,99 378,100 379,99 380,100 381,99 382,100 383,101 384,100 385,99 386,100 387,99 388,98 389,99 390,100 391,101 392,102 393,101 394,100 395,101 396,102 397,101 398,100 399,99 400,200 " style="fill:rgb(134,148,208);stroke:rgb(34,48,108)"></polygon><polygon points="0,200 0,100 1,101 2,102 3,103 4,102 5,103 6,102 7,101 8,102 9,103 10,102 11,103 12,102 13,103 14,104 15,105 16,104 17,103 18,104 19,105 20,104 21,105 22,106 23,105 24,104 25,105 26,106 27,107 28,108 29,107 30,108 31,109 32,108 33,107 34,108 35,107 36,106 37,105 38,106 39,107 40,106 41,105 42,104 43,105 44,104 45,103 46,102 47,101 48,102 49,101 50,102 51,101 52,100 53,99 54,98 55,97 56,96 57,97 58,98 59,99 60,100 61,101 62,100 63,99 64,98 65,97 66,96 67,97 68,96 69,97 70,96 71,95 72,96 73,95 74,96 75,97 76,98 77,99 78,98 79,99 80,98 81,97 82,98 83,99 84,98 85,99 86,100 87,99 88,98 89,99 90,100 91,99 92,100 93,101 94,102 95,101 96,102 97,101 98,100 99,101 100,102 101,101 102,102 103,103 104,102 105,103 106,102 107,101 108,100 109,99 110,98 111,97 112,98 113,99 114,98 115,97 116,96 117,95 118,94 119,93 120,94 121,95 122,96 123,95 124,94 125,93 126,94 127,95 128,96 129,97 130,96 131,95 132,96 133,97 134,96 135,95 136,96 137,95 138,94 139,93 140,94 141,95 142,94 143,95 144,94 145,93 146,92 147,93 148,94 149,95 150,96 151,95 152,96 153,95 154,96 155,95 156,94 157,95 158,94 159,93 160,92 161,91 162,92 163,93 164,94 165,93 166,94 167,95 168,94 169,95 170,96 171,97 172,96 173,95 174,94 175,93 176,92 177,93 178,94 179,95 180,96 181,97 182,98 183,99 184,98 185,99 186,100 187,101 188,100 189,99 190,98 191,97 192,98 193,97 194,98 195,99 196,98 197,99 198,98 199,97 200,96 201,95 202,96 203,95 204,94 205,95 206,96 207,97 208,98 209,97 210,96 211,97 212,96 213,95 214,96 215,97 216,98 217,97 218,96 219,97 220,96 221,97 222,96 223,97 224,98 225,97 226,96 227,95 228,94 229,93 230,92 231,91 232,92 233,93 234,94 235,95 236,94 237,93 238,94 239,93 240,92 241,91 242,90 243,91 244,92 245,91 246,92 247,93 248,92 249,93 250,92 251,93 252,92 253,91 254,92 255,93 256,92 257,91 258,92 259,91 260,92 261,91 262,92 263,93 264,94 265,93 266,92 267,93 268,92 269,91 270,92 271,91 272,92 273,93 274,94 275,95 276,96 277,95 278,96 279,95 280,96 281,97 282,96 283,97 284,98 285,99 286,100 287,101 288,100 289,101 290,100 291,101 292,100 293,99 294,98 295,99 296,100 297,101 298,100 299,101 300,100 301,101 302,100 303,101 304,100 305,99 306,98 307,97 308,96 309,97 310,96 311,95 312,94 313,95 314,96 315,97 316,96 317,95 318,94 319,93 320,92 321,93 322,94 323,93 324,94 325,93 326,94 327,95 328,94 329,95 330,96 331,95 332,96 333,97 334,96 335,95 336,96 337,95 338,96 339,97 340,96 341,97 342,98 343,99 344,100 345,101 346,102 347,101 348,100 349,99 350,100 351,99 352,100 353,99 354,98 355,97 356,96 357,95 358,94 359,93 360,92 361,91 362,90 363,91 364,92 365,93 366,94 367,95 368,94 369,95 370,94 371,93 372,92 373,93 374,92 375,93 376,92 377,93 378,92 379,93 380,94 381,95 382,96 383,97 384,98 385,99 386,100 387,99 388,100 389,101 390,100 391,99 392,98 393,99 394,98 395,99 396,100 397,99 398,100 399,99 400,200 " style="fill:rgb(123,139,195);stroke:rgb(23,39,95)"></polygon><polygon points="0,200 0,100 1,99 2,100 3,101 4,100 5,99 6,98 7,99 8,100 9,99 10,98 11,97 12,96 13,97 14,96 15,95 16,94 17,93 18,92 19,93 20,92 21,91 22,92 23,93 24,92 25,91 26,92 27,93 28,94 29,95 30,94 31,93 32,94 33,93 34,94 35,93 36,92 37,93 38,92 39,91 40,90 41,89 42,90 43,89 44,90 45,89 46,88 47,87 48,88 49,89 50,90 51,89 52,88 53,89 54,90 55,91 56,90 57,91 58,90 59,89 60,88 61,87 62,88 63,89 64,88 65,89 66,88 67,89 68,88 69,87 70,88 71,87 72,88 73,89 74,88 75,89 76,90 77,91 78,90 79,91 80,92 81,91 82,92 83,91 84,92 85,91 86,92 87,93 88,94 89,93 90,94 91,95 92,96 93,95 94,96 95,95 96,96 97,97 98,98 99,97 100,96 101,97 102,98 103,99 104,100 105,101 106,102 107,103 108,102 109,101 110,100 111,101 112,100 113,99 114,98 115,99 116,98 117,99 118,98 119,97 120,96 121,95 122,94 123,95 124,94 125,95 126,94 127,95 128,96 129,97 130,98 131,99 132,100 133,101 134,102 135,101 136,100 137,101 138,102 139,103 140,102 141,103 142,102 143,103 144,104 145,103 146,102 147,101 148,102 149,101 150,100 151,101 152,100 153,101 154,102 155,101 156,102 157,103 158,102 159,103 160,102 161,101 162,100 163,101 164,102 165,103 166,102 167,101 168,102 169,103 170,104 171,103 172,102 173,103 174,104 175,105 176,106 177,105 178,104 179,105 180,104 181,103 182,102 183,101 184,102 185,103 186,104 187,103 188,102 189,103 190,102 191,103 192,102 193,101 194,100 195,99 196,100 197,101 198,100 199,101 200,100 201,101 202,102 203,101 204,102 205,103 206,104 207,105 208,104 209,103 210,104 211,103 212,104 213,105 214,104 215,105 216,106 217,107 218,106 219,105 220,106 221,105 222,106 223,107 224,106 225,105 226,104 227,105 228,104 229,105 230,106 231,105 232,106 233,107 234,108 235,109 236,110 237,109 238,110 239,111 240,110 241,111 242,112 243,111 244,110 245,109 246,108 247,109 248,110 249,109 250,110 251,111 252,110 253,111 254,112 255,111 256,112 257,111 258,112 259,113 260,112 261,111 262,112 263,113 264,112 265,113 266,114 267,113 268,112 269,111 270,110 271,111 272,112 273,113 274,114 275,113 276,114 277,115 278,116 279,115 280,114 281,113 282,114 283,115 284,114 285,113 286,114 287,113 288,114 289,113 290,114 291,113 292,114 293,115 294,116 295,115 296,116 297,117 298,118 299,117 300,118 301,119 302,118 303,119 304,118 305,119 306,118 307,119 308,120 309,119 310,118 311,119 312,118 313,117 314,116 315,117 316,118 317,119 318,120 319,121 320,122 321,121 322,120 323,119 324,118 325,117 326,116 327,115 328,114 329,113 330,114 331,115 332,116 333,117 334,118 335,117 336,116 337,115 338,116 339,115 340,114 341,115 342,116 343,117 344,118 345,117 346,116 347,115 348,114 349,115 350,116 351,115 352,116 353,115 354,116 355,115 356,116 357,115 358,114 359,113 360,112 361,111 362,110 363,111 364,110 365,111 366,110 367,109 368,108 369,107 370,108 371,107 372,106 373,105 374,104 375,103 376,102 377,101 378,102 379,101 380,102 381,101 382,102 383,101 384,102 385,101 386,102 387,101 388,100 389,101 390,100 391,101 392,102 393,101 394,100 395,101 396,100 397,99 398,98 399,97 400,200 " style="fill:rgb(74,62,171);stroke:rgb(0,0,71)"></polygon><polygon points="0,200 0,100 1,101 2,100 3,99 4,100 5,101 6,100 7,101 8,100 9,101 10,102 11,103 12,102 13,103 14,102 15,101 16,102 17,103 18,104 19,105 20,106 21,107 22,108 23,107 24,106 25,105 26,106 27,107 28,106 29,105 30,106 31,105 32,106 33,107 34,106 35,105 36,106 37,105 38,104 39,105 40,106 41,107 42,108 43,109 44,110 45,111 46,110 47,109 48,108 49,109 50,110 51,109 52,110 53,111 54,110 55,109 56,110 57,111 58,112 59,113 60,114 61,113 62,112 63,113 64,114 65,113 66,112 67,113 68,114 69,115 70,114 71,115 72,114 73,113 74,112 75,113 76,112 77,111 78,110 79,109 80,110 81,109 82,108 83,107 84,106 85,105 86,104 87,105 88,106 89,105 90,106 91,105 92,106 93,107 94,106 95,107 96,106 97,107 98,106 99,107 100,108 101,107 102,106 103,105 104,106 105,105 106,104 107,103 108,104 109,105 110,106 111,105 112,106 113,105 114,106 115,105 116,104 117,103 118,104 119,103 120,102 121,101 122,102 123,101 124,102 125,103 126,102 127,101 128,102 129,101 130,102 131,101 132,102 133,101 134,100 135,99 136,100 137,99 138,100 139,99 140,100 141,101 142,102 143,103 144,102 145,103 146,102 147,103 148,102 149,101 150,102 151,101 152,102 153,103 154,104 155,103 156,104 157,105 158,104 159,105 160,106 161,107 162,106 163,107 164,108 165,107 166,108 167,107 168,106 169,107 170,106 171,107 172,108 173,107 174,106 175,107 176,108 177,107 178,108 179,109 180,108 181,109 182,110 183,111 184,112 185,111 186,112 187,113 188,114 189,113 190,112 191,113 192,112 193,111 194,112 195,111 196,112 197,111 198,112 199,113 200,114 201,115 202,114 203,113 204,114 205,115 206,116 207,117 208,118 209,117 210,116 211,117 212,116 213,115 214,114 215,115 216,114 217,115 218,116 219,117 220,118 221,117 222,116 223,115 224,116 225,117 226,116 227,115 228,116 229,115 230,116 231,117 232,116 233,115 234,116 235,115 236,116 237,117 238,118 239,117 240,116 241,117 242,118 243,119 244,118 245,119 246,118 247,119 248,118 249,117 250,118 251,119 252,120 253,121 254,120 255,119 256,118 257,117 258,116 259,115 260,116 261,115 262,114 263,113 264,114 265,115 266,114 267,115 268,114 269,115 270,114 271,113 272,112 273,113 274,112 275,113 276,112 277,111 278,112 279,111 280,110 281,111 282,110 283,109 284,110 285,109 286,108 287,107 288,108 289,107 290,106 291,107 292,106 293,105 294,104 295,103 296,102 297,101 298,102 299,103 300,104 301,103 302,102 303,103 304,102 305,103 306,102 307,101 308,100 309,99 310,98 311,97 312,98 313,97 314,98 315,97 316,96 317,95 318,96 319,97 320,96 321,97 322,96 323,95 324,96 325,95 326,96 327,95 328,96 329,97 330,96 331,97 332,98 333,99 334,98 335,97 336,98 337,97 338,98 339,99 340,100 341,101 342,100 343,101 344,102 345,103 346,102 347,103 348,102 349,103 350,104 351,105 352,106 353,105 354,104 355,103 356,102 357,103 358,102 359,103 360,102 361,101 362,100 363,99 364,100 365,99 366,100 367,99 368,100 369,99 370,98 371,99 372,100 373,99 374,100 375,99 376,98 377,99 378,100 379,99 380,98 381,99 382,98 383,99 384,98 385,99 386,100 387,99 388,100 389,101 390,102 391,103 392,102 393,103 394,102 395,101 396,100 397,99 398,100 399,101 400,200 " style="fill:rgb(198,51,158);stroke:rgb(98,0,58)"></polygon><polygon points="0,200 0,100 1,99 2,98 3,97 4,98 5,97 6,98 7,99 8,100 9,101 10,102 11,103 12,102 13,101 14,100 15,99 16,100 17,99 18,98 19,99 20,100 21,99 22,100 23,101 24,102 25,103 26,102 27,103 28,102 29,101 30,100 31,99 32,100 33,101 34,102 35,103 36,104 37,103 38,102 39,101 40,102 41,103 42,104 43,105 44,106 45,107 46,108 47,107 48,108 49,109 50,110 51,111 52,110 53,109 54,110 55,109 56,108 57,107 58,108 59,107 60,106 61,105 62,106 63,107 64,108 65,109 66,108 67,109 68,108 69,107 70,108 71,109 72,108 73,107 74,106 75,105 76,106 77,105 78,104 79,105 80,106 81,107 82,106 83,107 84,108 85,107 86,106 87,105 88,104 89,105 90,106 91,107 92,108 93,109 94,108 95,107 96,106 97,105 98,104 99,105 100,104 101,105 102,106 103,105 104,104 105,105 106,106 107,107 108,108 109,109 110,108 111,107 112,108 113,107 114,108 115,109 116,108 117,107 118,106 119,107 120,108 121,107 122,106 123,107 124,106 125,107 126,108 127,107 128,108 129,109 130,108 131,107 132,106 133,107 134,106 135,107 136,106 137,107 138,108 139,109 140,108 141,109 142,108 143,109 144,108 145,107 146,108 147,109 148,110 149,109 150,108 151,107 152,108 153,109 154,108 155,109 156,110 157,111 158,112 159,113 160,114 161,115 162,116 163,115 164,116 165,117 166,116 167,117 168,118 169,119 170,118 171,119 172,118 173,117 174,116 175,115 176,114 177,113 178,112 179,113 180,112 181,113 182,114 183,115 184,116 185,115 186,114 187,115 188,114 189,113 190,112 191,111 192,110 193,109 194,108 195,109 196,110 197,111 198,110 199,109 200,108 201,107 202,106 203,105 204,106 205,107 206,106 207,105 208,104 209,105 210,106 211,105 212,106 213,107 214,108 215,107 216,106 217,107 218,106 219,107 220,106 221,105 222,106 223,107 224,106 225,107 226,106 227,105 228,104 229,105 230,106 231,107 232,108 233,109 234,110 235,111 236,110 237,111 238,112 239,113 240,114 241,115 242,116 243,115 244,116 245,117 246,116 247,115 248,114 249,115 250,116 251,115 252,116 253,117 254,118 255,117 256,118 257,119 258,118 259,117 260,118 261,117 262,118 263,117 264,116 265,115 266,114 267,113 268,112 269,111 270,110 271,109 272,110 273,109 274,108 275,107 276,106 277,105 278,106 279,105 280,106 281,105 282,104 283,103 284,102 285,101 286,100 287,99 288,98 289,97 290,96 291,97 292,98 293,99 294,98 295,97 296,96 297,97 298,96 299,95 300,96 301,95 302,94 303,93 304,92 305,93 306,92 307,91 308,92 309,91 310,92 311,91 312,90 313,89 314,90 315,89 316,88 317,87 318,86 319,85 320,84 321,83 322,84 323,85 324,84 325,83 326,84 327,83 328,84 329,85 330,86 331,87 332,86 333,87 334,86 335,87 336,88 337,89 338,88 339,87 340,86 341,87 342,86 343,85 344,84 345,83 346,82 347,83 348,84 349,85 350,86 351,87 352,88 353,87 354,88 355,89 356,88 357,89 358,88 359,89 360,88 361,89 362,88 363,89 364,90 365,89 366,90 367,91 368,92 369,91 370,90 371,89 372,90 373,89 374,90 375,91 376,92 377,93 378,94 379,95 380,96 381,97 382,96 383,97 384,96 385,95 386,94 387,95 388,94 389,93 390,94 391,93 392,94 393,95 394,96 395,97 396,96 397,95 398,94 399,95 400,200 " style="fill:rgb(218,110,141);stroke:rgb(118,10,41)"></polygon><polygon points="0,200 0,100 1,101 2,100 3,99 4,100 5,101 6,100 7,99 8,100 9,101 10,100 11,99 12,100 13,99 14,100 15,99 16,100 17,101 18,100 19,99 20,100 21,101 22,100 23,99 24,98 25,99 26,100 27,99 28,98 29,97 30,96 31,95 32,96 33,95 34,96 35,97 36,98 37,99 38,100 39,101 40,100 41,99 42,100 43,99 44,98 45,97 46,98 47,99 48,100 49,99 50,100 51,101 52,102 53,101 54,102 55,101 56,100 57,99 58,98 59,97 60,96 61,97 62,96 63,97 64,96 65,97 66,96 67,95 68,94 69,95 70,94 71,93 72,92 73,91 74,90 75,89 76,88 77,87 78,86 79,85 80,84 81,83 82,82 83,81 84,80 85,81 86,80 87,81 88,82 89,81 90,80 91,81 92,82 93,83 94,82 95,83 96,82 97,81 98,82 99,81 100,80 101,81 102,80 103,81 104,82 105,83 106,82 107,83 108,82 109,81 110,80 111,81 112,82 113,83 114,82 115,81 116,82 117,81 118,82 119,81 120,82 121,83 122,82 123,81 124,82 125,83 126,84 127,85 128,86 129,87 130,86 131,85 132,86 133,87 134,86 135,85 136,86 137,85 138,86 139,87 140,88 141,89 142,88 143,89 144,90 145,91 146,90 147,91 148,92 149,93 150,94 151,93 152,92 153,93 154,92 155,93 156,92 157,93 158,94 159,95 160,94 161,95 162,94 163,93 164,92 165,93 166,92 167,93 168,94 169,93 170,94 171,95 172,96 173,97 174,98 175,99 176,98 177,99 178,98 179,99 180,98 181,99 182,98 183,99 184,98 185,97 186,98 187,99 188,100 189,101 190,102 191,103 192,104 193,105 194,106 195,105 196,104 197,105 198,104 199,103 200,102 201,103 202,102 203,103 204,102 205,103 206,104 207,105 208,104 209,103 210,102 211,101 212,102 213,101 214,102 215,101 216,100 217,101 218,102 219,103 220,102 221,101 222,100 223,101 224,100 225,101 226,102 227,103 228,104 229,103 230,104 231,103 232,104 233,105 234,106 235,107 236,106 237,105 238,106 239,107 240,106 241,105 242,106 243,107 244,108 245,109 246,108 247,109 248,110 249,111 250,110 251,109 252,110 253,111 254,110 255,111 256,112 257,113 258,114 259,113 260,112 261,111 262,110 263,111 264,110 265,111 266,112 267,111 268,110 269,109 270,110 271,109 272,110 273,109 274,110 275,111 276,110 277,111 278,112 279,111 280,112 281,111 282,112 283,113 284,112 285,113 286,114 287,115 288,114 289,113 290,112 291,113 292,114 293,113 294,114 295,113 296,114 297,113 298,112 299,113 300,114 301,115 302,116 303,117 304,118 305,117 306,118 307,119 308,118 309,117 310,116 311,115 312,114 313,115 314,116 315,117 316,118 317,119 318,118 319,117 320,118 321,117 322,116 323,115 324,114 325,113 326,112 327,111 328,112 329,111 330,112 331,113 332,114 333,113 334,112 335,113 336,112 337,111 338,110 339,111 340,110 341,109 342,110 343,109 344,110 345,111 346,110 347,111 348,110 349,109 350,110 351,109 352,110 353,109 354,108 355,109 356,108 357,107 358,106 359,107 360,106 361,107 362,108 363,107 364,108 365,109 366,110 367,111 368,112 369,113 370,112 371,113 372,112 373,111 374,110 375,111 376,112 377,111 378,110 379,111 380,110 381,111 382,110 383,109 384,108 385,109 386,108 387,107 388,106 389,107 390,106 391,107 392,108 393,107 394,106 395,105 396,106 397,105 398,104 399,103 400,200 " style="fill:rgb(14,238,201);stroke:rgb(0,138,101)"></polygon><polygon points="0,200 0,100 1,101 2,100 3,101 4,100 5,99 6,98 7,99 8,98 9,97 10,98 11,97 12,98 13,99 14,98 15,99 16,98 17,97 18,96 19,97 20,98 21,97 22,96 23,97 24,98 25,99 26,100 27,101 28,100 29,99 30,98 31,97 32,96 33,97 34,98 35,97 36,98 37,99 38,100 39,99 40,98 41,97 42,96 43,95 44,94 45,93 46,92 47,91 48,90 49,89 50,88 51,89 52,88 53,89 54,88 55,87 56,88 57,87 58,88 59,87 60,86 61,87 62,86 63,85 64,84 65,83 66,84 67,83 68,82 69,81 70,82 71,83 72,82 73,83 74,84 75,85 76,86 77,87 78,86 79,85 80,86 81,87 82,88 83,87 84,86 85,87 86,86 87,85 88,86 89,87 90,88 91,89 92,88 93,89 94,90 95,89 96,88 97,89 98,90 99,89 100,90 101,89 102,88 103,87 104,88 105,89 106,90 107,89 108,88 109,89 110,88 111,87 112,86 113,87 114,86 115,87 116,86 117,87 118,86 119,87 120,88 121,89 122,88 123,89 124,90 125,89 126,90 127,89 128,90 129,91 130,90 131,91 132,92 133,93 134,94 135,95 136,94 137,95 138,94 139,93 140,94 141,93 142,94 143,93 144,94 145,93 146,94 147,95 148,94 149,93 150,92 151,91 152,90 153,89 154,90 155,91 156,92 157,93 158,94 159,93 160,94 161,93 162,92 163,93 164,94 165,93 166,94 167,95 168,96 169,95 170,96 171,97 172,96 173,95 174,96 175,97 176,96 177,97 178,96 179,97 180,98 181,97 182,96 183,97 184,96 185,97 186,98 187,99 188,98 189,99 190,100 191,99 192,100 193,99 194,98 195,97 196,96 197,95 198,94 199,93 200,92 201,91 202,92 203,93 204,92 205,93 206,92 207,93 208,94 209,95 210,94 211,93 212,92 213,93 214,92 215,91 216,92 217,93 218,94 219,95 220,96 221,95 222,96 223,95 224,94 225,93 226,94 227,95 228,96 229,97 230,96 231,97 232,96 233,97 234,96 235,95 236,96 237,95 238,96 239,95 240,94 241,93 242,94 243,95 244,94 245,93 246,94 247,93 248,92 249,91 250,92 251,91 252,92 253,91 254,92 255,93 256,92 257,93 258,94 259,95 260,96 261,97 262,96 263,97 264,98 265,97 266,96 267,97 268,96 269,95 270,96 271,97 272,98 273,99 274,98 275,97 276,96 277,95 278,96 279,95 280,94 281,93 282,92 283,93 284,92 285,91 286,92 287,93 288,94 289,95 290,94 291,93 292,94 293,93 294,94 295,93 296,92 297,91 298,90 299,91 300,92 301,91 302,90 303,91 304,90 305,89 306,88 307,89 308,90 309,91 310,92 311,93 312,94 313,93 314,92 315,91 316,90 317,91 318,92 319,93 320,94 321,93 322,92 323,93 324,94 325,95 326,96 327,95 328,94 329,95 330,94 331,93 332,92 333,91 334,92 335,91 336,90 337,91 338,92 339,93 340,92 341,93 342,94 343,95 344,94 345,93 346,94 347,95 348,94 349,95 350,94 351,93 352,94 353,95 354,94 355,93 356,92 357,93 358,92 359,91 360,92 361,93 362,92 363,93 364,94 365,93 366,92 367,91 368,90 369,89 370,90 371,89 372,90 373,91 374,92 375,91 376,92 377,91 378,90 379,91 380,92 381,93 382,94 383,93 384,92 385,91 386,92 387,93 388,92 389,91 390,92 391,93 392,94 393,95 394,94 395,95 396,94 397,95 398,96 399,95 400,200 " style="fill:rgb(7,46,122);stroke:rgb(0,0,22)"></polygon><polygon points="0,200 0,100 1,99 2,100 3,99 4,98 5,97 6,96 7,97 8,98 9,99 10,98 11,99 12,98 13,97 14,98 15,99 16,100 17,101 18,102 19,103 20,104 21,103 22,102 23,101 24,102 25,103 26,104 27,105 28,106 29,105 30,104 31,105 32,104 33,103 34,104 35,103 36,104 37,103 38,104 39,105 40,104 41,105 42,106 43,107 44,106 45,105 46,106 47,107 48,106 49,107 50,106 51,105 52,104 53,103 54,102 55,101 56,102 57,103 58,104 59,105 60,106 61,105 62,104 63,103 64,104 65,105 66,106 67,107 68,106 69,105 70,106 71,107 72,108 73,109 74,110 75,111 76,112 77,111 78,112 79,113 80,112 81,111 82,110 83,111 84,110 85,109 86,110 87,111 88,110 89,109 90,108 91,107 92,106 93,107 94,108 95,107 96,106 97,105 98,104 99,105 100,106 101,107 102,108 103,107 104,108 105,109 106,108 107,107 108,108 109,107 110,108 111,109 112,110 113,109 114,108 115,107 116,108 117,107 118,108 119,107 120,106 121,105 122,104 123,105 124,106 125,105 126,104 127,103 128,102 129,101 130,100 131,101 132,102 133,103 134,102 135,103 136,102 137,103 138,104 139,103 140,102 141,101 142,102 143,103 144,102 145,103 146,104 147,103 148,102 149,101 150,102 151,101 152,100 153,101 154,102 155,103 156,104 157,105 158,104 159,103 160,104 161,105 162,104 163,105 164,104 165,105 166,104 167,103 168,102 169,101 170,102 171,101 172,102 173,101 174,102 175,103 176,104 177,103 178,104 179,103 180,102 181,103 182,102 183,103 184,104 185,103 186,104 187,103 188,102 189,101 190,102 191,101 192,102 193,103 194,102 195,103 196,102 197,101 198,100 199,101 200,100 201,99 202,98 203,99 204,98 205,97 206,98 207,99 208,98 209,97 210,96 211,97 212,98 213,97 214,96 215,95 216,96 217,95 218,96 219,95 220,94 221,93 222,94 223,93 224,94 225,95 226,94 227,93 228,92 229,91 230,90 231,91 232,92 233,93 234,92 235,93 236,94 237,93 238,92 239,91 240,90 241,91 242,92 243,91 244,92 245,93 246,94 247,93 248,94 249,95 250,94 251,93 252,92 253,91 254,92 255,91 256,92 257,91 258,90 259,91 260,92 261,93 262,92 263,93 264,94 265,93 266,92 267,91 268,90 269,91 270,90 271,89 272,88 273,87 274,88 275,87 276,88 277,87 278,86 279,87 280,86 281,87 282,86 283,87 284,88 285,89 286,88 287,87 288,88 289,87 290,86 291,87 292,88 293,89 294,90 295,91 296,90 297,89 298,90 299,91 300,92 301,91 302,90 303,91 304,90 305,89 306,88 307,87 308,88 309,87 310,88 311,89 312,88 313,89 314,90 315,91 316,92 317,93 318,92 319,93 320,94 321,95 322,94 323,93 324,94 325,95 326,94 327,95 328,96 329,97 330,98 331,97 332,96 333,97 334,96 335,95 336,94 337,95 338,94 339,93 340,92 341,91 342,90 343,89 344,90 345,91 346,90 347,89 348,88 349,87 350,88 351,89 352,90 353,89 354,90 355,89 356,88 357,87 358,88 359,87 360,88 361,89 362,88 363,89 364,88 365,87 366,86 367,85 368,84 369,85 370,84 371,83 372,84 373,85 374,86 375,87 376,88 377,89 378,88 379,89 380,90 381,89 382,88 383,89 384,90 385,89 386,90 387,91 388,90 389,91 390,90 391,91 392,90 393,91 394,92 395,91 396,92 397,91 398,90 399,91 400,200 " style="fill:rgb(6,166,39);stroke:rgb(0,66,0)"></polygon><polygon points="0,200 0,100 1,99 2,98 3,99 4,100 5,101 6,102 7,103 8,104 9,103 10,102 11,101 12,100 13,101 14,102 15,101 16,102 17,101 18,102 19,101 20,100 21,99 22,98 23,99 24,98 25,97 26,96 27,97 28,96 29,97 30,98 31,97 32,98 33,97 34,98 35,97 36,96 37,97 38,96 39,95 40,94 41,95 42,96 43,95 44,96 45,97 46,96 47,95 48,96 49,97 50,96 51,97 52,96 53,95 54,96 55,95 56,94 57,93 58,92 59,93 60,94 61,95 62,94 63,95 64,94 65,93 66,94 67,95 68,94 69,95 70,96 71,95 72,94 73,95 74,96 75,97 76,96 77,97 78,96 79,97 80,98 81,99 82,100 83,101 84,102 85,101 86,100 87,99 88,100 89,99 90,100 91,99 92,100 93,99 94,100 95,99 96,100 97,99 98,98 99,97 100,96 101,95 102,94 103,93 104,92 105,93 106,94 107,93 108,94 109,93 110,94 111,93 112,92 113,91 114,92 115,93 116,94 117,93 118,94 119,95 120,96 121,97 122,98 123,97 124,96 125,97 126,98 127,97 128,96 129,97 130,98 131,99 132,100 133,101 134,102 135,103 136,104 137,105 138,104 139,105 140,106 141,105 142,106 143,107 144,106 145,107 146,106 147,107 148,106 149,105 150,104 151,103 152,102 153,101 154,100 155,99 156,100 157,101 158,100 159,101 160,102 161,103 162,104 163,103 164,104 165,103 166,102 167,103 168,104 169,105 170,104 171,103 172,102 173,103 174,104 175,103 176,102 177,103 178,102 179,103 180,104 181,103 182,102 183,103 184,104 185,105 186,106 187,105 188,106 189,105 190,104 191,103 192,104 193,103 194,102 195,103 196,102 197,103 198,104 199,105 200,106 201,107 202,108 203,109 204,110 205,109 206,108 207,107 208,106 209,105 210,104 211,103 212,104 213,103 214,102 215,101 216,102 217,101 218,102 219,101 220,100 221,99 222,98 223,97 224,98 225,99 226,98 227,97 228,96 229,97 230,98 231,99 232,100 233,101 234,100 235,99 236,100 237,99 238,98 239,97 240,96 241,95 242,96 243,95 244,94 245,93 246,92 247,93 248,94 249,93 250,92 251,93 252,94 253,93 254,94 255,95 256,96 257,97 258,96 259,95 260,94 261,93 262,92 263,93 264,94 265,95 266,96 267,97 268,96 269,97 270,96 271,97 272,98 273,99 274,100 275,99 276,98 277,99 278,98 279,97 280,98 281,99 282,100 283,99 284,98 285,97 286,98 287,99 288,100 289,99 290,98 291,99 292,100 293,101 294,100 295,99 296,98 297,97 298,98 299,99 300,98 301,99 302,100 303,101 304,100 305,99 306,98 307,99 308,98 309,99 310,100 311,101 312,102 313,101 314,102 315,103 316,104 317,103 318,104 319,105 320,104 321,103 322,102 323,101 324,102 325,103 326,102 327,103 328,104 329,103 330,104 331,103 332,102 333,103 334,104 335,103 336,102 337,101 338,102 339,103 340,104 341,103 342,104 343,105 344,104 345,103 346,102 347,101 348,102 349,101 350,102 351,101 352,100 353,99 354,98 355,99 356,100 357,99 358,100 359,99 360,98 361,97 362,98 363,99 364,98 365,97 366,96 367,95 368,96 369,95 370,96 371,95 372,96 373,97 374,98 375,97 376,96 377,97 378,96 379,97 380,98 381,97 382,98 383,97 384,96 385,97 386,96 387,95 388,94 389,93 390,94 391,95 392,96 393,95 394,96 395,97 396,96 397,95 398,94 399,93 400,200 " style="fill:rgb(102,74,51);stroke:rgb(2,0,0)"></polygon><polygon points="0,200 0,100 1,101 2,100 3,101 4,100 5,101 6,102 7,101 8,102 9,101 10,100 11,101 12,102 13,103 14,102 15,103 16,102 17,101 18,102 19,103 20,104 21,103 22,102 23,101 24,100 25,101 26,100 27,101 28,100 29,99 30,98 31,99 32,100 33,99 34,98 35,99 36,98 37,99 38,98 39,99 40,100 41,101 42,102 43,101 44,102 45,101 46,102 47,101 48,102 49,101 50,102 51,103 52,104 53,105 54,106 55,105 56,104 57,103 58,104 59,105 60,106 61,107 62,106 63,105 64,106 65,107 66,108 67,107 68,106 69,105 70,104 71,105 72,106 73,107 74,106 75,107 76,106 77,107 78,108 79,109 80,110 81,111 82,112 83,113 84,114 85,113 86,114 87,113 88,112 89,111 90,110 91,111 92,112 93,113 94,114 95,113 96,112 97,111 98,110 99,109 100,108 101,107 102,108 103,107 104,108 105,109 106,110 107,109 108,110 109,111 110,112 111,113 112,114 113,113 114,114 115,115 116,116 117,115 118,116 119,117 120,118 121,119 122,120 123,121 124,120 125,121 126,122 127,121 128,120 129,121 130,120 131,121 132,120 133,121 134,120 135,119 136,120 137,121 138,122 139,123 140,124 141,123 142,122 143,121 144,120 145,119 146,120 147,119 148,120 149,121 150,120 151,121 152,122 153,123 154,122 155,123 156,124 157,125 158,126 159,127 160,126 161,127 162,128 163,127 164,126 165,125 166,126 167,125 168,124 169,125 170,126 171,125 172,124 173,125 174,124 175,125 176,124 177,123 178,124 179,125 180,126 181,127 182,128 183,127 184,128 185,129 186,128 187,127 188,126 189,125 190,126 191,127 192,128 193,129 194,130 195,129 196,130 197,129 198,128 199,129 200,128 201,129 202,130 203,131 204,130 205,129 206,130 207,129 208,128 209,129 210,128 211,127 212,128 213,127 214,126 215,125 216,124 217,123 218,124 219,125 220,126 221,127 222,128 223,127 224,128 225,127 226,128 227,127 228,128 229,129 230,130 231,131 232,132 233,133 234,134 235,135 236,134 237,135 238,134 239,135 240,136 241,135 242,134 243,135 244,136 245,137 246,138 247,137 248,136 249,135 250,134 251,135 252,134 253,135 254,134 255,135 256,134 257,135 258,136 259,135 260,136 261,137 262,136 263,135 264,134 265,135 266,134 267,135 268,136 269,137 270,138 271,139 272,140 273,141 274,142 275,141 276,140 277,141 278,142 279,143 280,144 281,145 282,146 283,145 284,146 285,147 286,148 287,149 288,150 289,151 290,152 291,151 292,150 293,151 294,152 295,153 296,152 297,151 298,152 299,153 300,154 301,155 302,156 303,157 304,156 305,155 306,154 307,155 308,156 309,155 310,156 311,155 312,154 313,153 314,152 315,151 316,150 317,149 318,150 319,149 320,148 321,149 322,150 323,151 324,150 325,149 326,150 327,151 328,152 329,151 330,150 331,151 332,150 333,151 334,152 335,151 336,150 337,149 338,148 339,147 340,146 341,147 342,148 343,149 344,148 345,147 346,148 347,149 348,148 349,147 350,148 351,147 352,146 353,147 354,148 355,149 356,150 357,149 358,148 359,147 360,148 361,147 362,148 363,147 364,148 365,149 366,148 367,147 368,146 369,147 370,148 371,149 372,148 373,147 374,148 375,147 376,148 377,149 378,148 379,147 380,148 381,147 382,146 383,145 384,144 385,143 386,144 387,145 388,144 389,145 390,146 391,147 392,148 393,147 394,148 395,147 396,146 397,145 398,146 399,147 400,200 " style="fill:rgb(33,8,92);stroke:rgb(0,0,0)"></polygon></svg>